<?xml version="1.0" encoding="utf-8" ?>
<!-- Generated by AutoXChange V23.12.113b from Tailor Made Software -->
<!-- www.tailormade.com and www.cadviewer.com -->
<!DOCTYPE svg PUBLIC '-//W3C//DTD SVG 1.0//EN' 
'http://www.w3.org/TR/2001/REC-SVG-20010904/DTD/svg10.dtd'>
<svg id="tmsSVG34" contentScriptType="text/ecmascript" xmlns:xlink="http://www.w3.org/1999/xlink" zoomAndPan="magnify" 
contentStyleType="text/css" preserveAspectRatio="xMidYMid meet" 
width="2173" height="2461.27" viewBox="0 0 2173 2461.27" 
version="1.1" xmlns="http://www.w3.org/2000/svg" xmlns:cvjs="http://www.tailormade.com/" stroke-linecap="butt" stroke-linejoin="round" fill-rule="evenodd" >
<defs>
	<style id="cv_styles" type = "text/css">
	    <![CDATA[
	   #tmsSVG34 { background-color: white; opacity: 1.}
		:root {
		    --tmsLineWeightScale: 1;
		    --tmsMinLineWidth: 0.6;
		    --tmsCalcMinLineWeight: calc(var(--tmsMinLineWidth)*var(--tmsLineWeightScale));
		    --tmsMinDashLength: 0.6;
		    --tmsHLWidth: 0.6;
		    --tmsNumberOfLayouts: 1;
		    --tmsNumberOfSVGViewports: 0;
         --tmsMinFixedLineWidth: 0.6;
         --tmsCalcFixedLineWidth:  calc(var(--tmsMinFixedLineWidth)*var(--tmsLineWeightScale));
		    --tmsbPostFix: 0;
		}
		.tmsPoints {
		    fill: none;
		    stroke-width: var(--tmsCalcFixedLineWidth);
		    r: calc(var(--tmsCalcFixedLineWidth)/2.0);
		}
		.ZWhl {
		    stroke-width: var(--tmsHLWidth);
		}
		.ZW {
		    stroke-width: var(--tmsCalcMinLineWeight);
		}
		.ZW6 {
		    stroke-width: calc(var(--tmsCalcMinLineWeight)*6);
		}
		.ZW10 {
		    stroke-width: calc(var(--tmsCalcMinLineWeight)*10);
		}
		.ZW20 {
		    stroke-width: calc(var(--tmsCalcMinLineWeight)*20);
		}
		.ZW100 {
		    stroke-width: calc(var(--tmsCalcMinLineWeight)*100);
		}
		.nZW {
		}
		.sLW_0_0{
		    stroke-width: calc(var(--tmsCalcFixedLineWidth)*0.25);
		}
		.sLW_0_2{
		    stroke-width: calc(var(--tmsCalcFixedLineWidth)*0.333333);
		}
		.sLW_0_26{
		    stroke-width: calc(var(--tmsCalcFixedLineWidth)*0.433333);
		}
		.sRGB_0 {
		    stroke: #FFF;
		    fill: none;
		}
		.fRGB_0 {
		    stroke: #FFF;
		    fill: #FFF;
		}
		.sRGB_3 {
		    stroke: #0F0;
		    fill: none;
		}
		.fRGB_3 {
		    stroke: #0F0;
		    fill: #0F0;
		}
		.sRGB_4 {
		    stroke: #0FF;
		    fill: none;
		}
		.fRGB_4 {
		    stroke: #0FF;
		    fill: #0FF;
		}
		.sRGB_9 {
		    stroke: #C0C0C0;
		    fill: none;
		}
		.fRGB_9 {
		    stroke: #C0C0C0;
		    fill: #C0C0C0;
		}
		.hyperlinks:hover {
		    stroke-width: 3;
		}
		.hyperimage image{
			opacity: 0;
		}
		.hyperimage:hover image{
			opacity: 1;
		}
		.hyperimage:hover path{
			stroke-width: 3;
		}
		.hyperimage:visited{
			color: red;
		}
		.sLt_HIDDENX2 {
		    stroke-dasharray: calc(var(--tmsMinDashLength)*11.831511) calc(var(--tmsMinDashLength)*3.943837);
		}
		.sLt_HIDDEN {
		    stroke-dasharray: calc(var(--tmsMinDashLength)*7.887674) calc(var(--tmsMinDashLength)*3.943837);
		}
		.sLt_HIDDEN2 {
		    stroke-dasharray: calc(var(--tmsMinDashLength)*5.915755) calc(var(--tmsMinDashLength)*3.943837);
		}
		.sLt_DASHED {
		    stroke-dasharray: calc(var(--tmsMinDashLength)*7.887674) calc(var(--tmsMinDashLength)*3.15507);
		}
		.sLt_DASHED2 {
		    stroke-dasharray: calc(var(--tmsMinDashLength)*4.732604) calc(var(--tmsMinDashLength)*2.366302);
		}
		.sLt_DASHEDX2 {
		    stroke-dasharray: calc(var(--tmsMinDashLength)*15.775348) calc(var(--tmsMinDashLength)*3.15507);
		}
		.sLt_DOTX2 {
		    stroke-dasharray: calc(var(--tmsMinDashLength)*4) calc(var(--tmsMinDashLength)*6.901715);
		}
		.sLt_DOT {
		    stroke-dasharray: calc(var(--tmsMinDashLength)*4) calc(var(--tmsMinDashLength)*5.521372);
		}
		.sLt_DOT2 {
		    stroke-dasharray: calc(var(--tmsMinDashLength)*4) calc(var(--tmsMinDashLength)*4.141029);
		}
		.sLt_CENTERX2 {
		    stroke-dasharray: calc(var(--tmsMinDashLength)*9.859592) calc(var(--tmsMinDashLength)*4.929796) calc(var(--tmsMinDashLength)*3.943837) calc(var(--tmsMinDashLength)*4.929796);
		}
		.sLt_CENTER {
		    stroke-dasharray: calc(var(--tmsMinDashLength)*7.887674) calc(var(--tmsMinDashLength)*3.943837) calc(var(--tmsMinDashLength)*2.366302) calc(var(--tmsMinDashLength)*3.943837);
		}
		.sLt_CENTER2 {
		    stroke-dasharray: calc(var(--tmsMinDashLength)*5.915755) calc(var(--tmsMinDashLength)*2.957878) calc(var(--tmsMinDashLength)*0.788767) calc(var(--tmsMinDashLength)*2.957878);
		}
		.sLt_DASHDOTX2 {
		    stroke-dasharray: calc(var(--tmsMinDashLength)*18.930418) calc(var(--tmsMinDashLength)*6.310139) calc(var(--tmsMinDashLength)*6.310139) calc(var(--tmsMinDashLength)*6.310139);
		}
		.sLt_DASHDOT {
		    stroke-dasharray: calc(var(--tmsMinDashLength)*9.465209) calc(var(--tmsMinDashLength)*3.15507) calc(var(--tmsMinDashLength)*3.15507) calc(var(--tmsMinDashLength)*3.15507);
		}
		.sLt_DASHDOT2 {
		    stroke-dasharray: calc(var(--tmsMinDashLength)*7.098907) calc(var(--tmsMinDashLength)*2.366302) calc(var(--tmsMinDashLength)*0.315507) calc(var(--tmsMinDashLength)*2.366302);
		}
		.sLt_DIVIDEX2 {
		    stroke-dasharray: calc(var(--tmsMinDashLength)*18.930418) calc(var(--tmsMinDashLength)*6.310139) calc(var(--tmsMinDashLength)*6.310139) calc(var(--tmsMinDashLength)*6.310139) calc(var(--tmsMinDashLength)*6.310139) calc(var(--tmsMinDashLength)*6.310139);
		}
		.sLt_DIVIDE {
		    stroke-dasharray: calc(var(--tmsMinDashLength)*9.465209) calc(var(--tmsMinDashLength)*3.15507) calc(var(--tmsMinDashLength)*3.15507) calc(var(--tmsMinDashLength)*3.15507) calc(var(--tmsMinDashLength)*3.15507) calc(var(--tmsMinDashLength)*3.15507);
		}
		.sLt_DIVIDE2 {
		    stroke-dasharray: calc(var(--tmsMinDashLength)*7.098907) calc(var(--tmsMinDashLength)*2.366302) calc(var(--tmsMinDashLength)*2.366302) calc(var(--tmsMinDashLength)*2.366302) calc(var(--tmsMinDashLength)*2.366302) calc(var(--tmsMinDashLength)*2.366302);
		}
		.sLt_BORDERX2 {
		    stroke-dasharray: calc(var(--tmsMinDashLength)*9.859592) calc(var(--tmsMinDashLength)*4.929796) calc(var(--tmsMinDashLength)*9.859592) calc(var(--tmsMinDashLength)*4.929796) calc(var(--tmsMinDashLength)*4) calc(var(--tmsMinDashLength)*4.929796);
		}
		.sLt_BORDER {
		    stroke-dasharray: calc(var(--tmsMinDashLength)*7.887674) calc(var(--tmsMinDashLength)*3.943837) calc(var(--tmsMinDashLength)*7.887674) calc(var(--tmsMinDashLength)*3.943837) calc(var(--tmsMinDashLength)*4) calc(var(--tmsMinDashLength)*3.943837);
		}
		.sLt_BORDER2 {
		    stroke-dasharray: calc(var(--tmsMinDashLength)*6.310139) calc(var(--tmsMinDashLength)*3.943837) calc(var(--tmsMinDashLength)*2.366302) calc(var(--tmsMinDashLength)*3.943837) calc(var(--tmsMinDashLength)*4) calc(var(--tmsMinDashLength)*3.943837);
		}
		.sLt_PHANTOMX2 {
		    stroke-dasharray: calc(var(--tmsMinDashLength)*9.859592) calc(var(--tmsMinDashLength)*3.943837) calc(var(--tmsMinDashLength)*3.943837) calc(var(--tmsMinDashLength)*3.943837) calc(var(--tmsMinDashLength)*3.943837) calc(var(--tmsMinDashLength)*3.943837);
		}
		.sLt_PHANTOM {
		    stroke-dasharray: calc(var(--tmsMinDashLength)*7.887674) calc(var(--tmsMinDashLength)*3.943837) calc(var(--tmsMinDashLength)*2.366302) calc(var(--tmsMinDashLength)*3.943837) calc(var(--tmsMinDashLength)*2.366302) calc(var(--tmsMinDashLength)*3.943837);
		}
		.sLt_PHANTOM2 {
		    stroke-dasharray: calc(var(--tmsMinDashLength)*5.915755) calc(var(--tmsMinDashLength)*3.943837) calc(var(--tmsMinDashLength)*1.577535) calc(var(--tmsMinDashLength)*3.943837) calc(var(--tmsMinDashLength)*1.577535) calc(var(--tmsMinDashLength)*3.943837);
		}
		.sLt_ACAD_ISO06W100 {
		    stroke-dasharray: calc(var(--tmsMinDashLength)*18.930418) calc(var(--tmsMinDashLength)*3.943837) calc(var(--tmsMinDashLength)*2.366302) calc(var(--tmsMinDashLength)*3.943837) calc(var(--tmsMinDashLength)*2.366302) calc(var(--tmsMinDashLength)*3.943837) calc(var(--tmsMinDashLength)*2.366302) calc(var(--tmsMinDashLength)*3.943837);
		}
		.sLt_ACAD_ISO13W100 {
		    stroke-dasharray: calc(var(--tmsMinDashLength)*7.887674) calc(var(--tmsMinDashLength)*3.943837) calc(var(--tmsMinDashLength)*7.887674) calc(var(--tmsMinDashLength)*3.943837) calc(var(--tmsMinDashLength)*4) calc(var(--tmsMinDashLength)*3.943837) calc(var(--tmsMinDashLength)*4) calc(var(--tmsMinDashLength)*3.943837);
		}
		.sLt_ACAD_ISO14W100 {
		    stroke-dasharray: calc(var(--tmsMinDashLength)*7.887674) calc(var(--tmsMinDashLength)*3.943837) calc(var(--tmsMinDashLength)*4) calc(var(--tmsMinDashLength)*3.943837) calc(var(--tmsMinDashLength)*4) calc(var(--tmsMinDashLength)*3.943837) calc(var(--tmsMinDashLength)*4) calc(var(--tmsMinDashLength)*3.943837);
		}
		.sLt_AM_ISO02W050 {
		    stroke-dasharray: calc(var(--tmsMinDashLength)*19.04196) calc(var(--tmsMinDashLength)*4.76049);
		}
		.sLt_AM_ISO08W050 {
		    stroke-dasharray: calc(var(--tmsMinDashLength)*38.083921) calc(var(--tmsMinDashLength)*4.76049) calc(var(--tmsMinDashLength)*9.52098) calc(var(--tmsMinDashLength)*4.76049);
		}
		.sLt_AM_ISO09W050 {
		    stroke-dasharray: calc(var(--tmsMinDashLength)*38.083921) calc(var(--tmsMinDashLength)*4.76049) calc(var(--tmsMinDashLength)*9.52098) calc(var(--tmsMinDashLength)*4.76049) calc(var(--tmsMinDashLength)*9.52098) calc(var(--tmsMinDashLength)*4.76049);
		}
		.sLt_AMCONSTR {
		    stroke-dasharray: calc(var(--tmsMinDashLength)*31733.427083) calc(var(--tmsMinDashLength)*4);
		}
		.sLt_AM_ISO08W050X2 {
		    stroke-dasharray: calc(var(--tmsMinDashLength)*19.04196) calc(var(--tmsMinDashLength)*2.380245) calc(var(--tmsMinDashLength)*4.76049) calc(var(--tmsMinDashLength)*2.380245);
		}
		.sLt_AM_ISO02W050X2 {
		    stroke-dasharray: calc(var(--tmsMinDashLength)*9.52098) calc(var(--tmsMinDashLength)*2.380245);
		}
		.sLt_ACISOWELD {
		    stroke-dasharray: calc(var(--tmsMinDashLength)*6.34732) calc(var(--tmsMinDashLength)*3.17366);
		}
		.sLt_ACISOTGL {
		    stroke-dasharray: calc(var(--tmsMinDashLength)*6.34732) calc(var(--tmsMinDashLength)*3.17366);
		}
		.sLt_ACISOTGB {
		    stroke-dasharray: calc(var(--tmsMinDashLength)*12.69464) calc(var(--tmsMinDashLength)*3.17366) calc(var(--tmsMinDashLength)*3.17366) calc(var(--tmsMinDashLength)*3.17366) calc(var(--tmsMinDashLength)*3.17366) calc(var(--tmsMinDashLength)*3.17366);
		}
	]]></style>
	</defs>
<metadata>
<text id="cadviewer_Used_Colors">[0,3,4,9]</text>
<text id="cadviewer_worldUnits">
{ "globalOrigin": { "x": 15.128499, "y" : -528.458474}, 
						"units": "mm",
						"measurementType": "Metric",
						"lengthType": "Decimal",
						"lengthPrecision": 4,
						"blockUnitsFormat": "Millimeters",
						"svgToWorldUnits": 0.323138,
						"worldToSVGUnits": 3.094654
}
</text>
<text id="cadviewer_drawingCoordinates">
{ "DWG": 
    { "lowerLeft": { "x": 15.128499, "y" : -528.458474}, 
      "upperRight": { "x": 717.307079, "y" : 274.879488} 
    },
 "SVG": 
    { "lowerLeft": { "x": 0.000000, "y" : 2480.635689}, 
      "upperRight": { "x": 2173.000000, "y" : 19.364311} 
    },
 "Drawing Height": 2500
}
</text>
<text id="cadviewer_vqBuilding"></text>
<text id="cadviewer_vqFloor"></text>
<text id="cadviewer_multiPages">
{ "multiPages": 3, 
                   "currentPage":1,
                   "pages" : [
                        { "fileName":"F203993.svg", "pageName":"ModelSpace"},
                        { "fileName":"F203993_Layout_Layout1.svg", "pageName":"Layout1"},
                        { "fileName":"F203993_Layout_Layout2.svg", "pageName":"Layout2"}
                   ]
}
</text>
</metadata>
<g id="cv_main_drawing">
<g id="layer_0" class="layer_0"  cvjs:layerName="0" cvjs:plottable="YES"
 cvjs:status="ON" visibility="visible">
<g id="cvclr_1" class="sRGB_3" >
<path id="cv_2" class="ZW" d="M1750.34,2066.89h-55.7M1385.17,782.61L1385.17,1246.81M1750.34,241.05L1750.34,2066.89M1750.34,241.05H1329.47L1329.47,2066.89M1617.27,1324.18H1462.54M1617.27,705.24H1462.54M1694.64,782.61L1694.64,1246.81M1385.17,1896.69L1385.17,2066.89M1694.64,1896.69L1694.64,2066.89M1385.17,2066.89h-55.7M1617.27,1819.32H1462.54" />
<path id="cv_3" class="nZW sLW_0_26" d="M522.55,263.43H1079.59M1079.59,727.63h-61.89M522.55,325.32l0,-61.89M1079.59,263.43L1079.59,727.63M1017.7,727.63L522.55,325.32M0,1600.46H278.52M278.52,2021.33H0M278.52,1600.46L278.52,2021.33M760.61,1600.46H957.12M957.12,2021.33H760.61L760.61,1600.46M957.12,1600.46L957.12,2021.33" />
<path id="cv_4" class="ZW" d="M1462.54,705.24A 77.366359 77.366359 0 0 0 1385.17 782.61M1694.64,782.61A 77.366359 77.366359 0 0 0 1617.28 705.24M1385.17,1246.81A 77.366359 77.366359 0 0 0 1462.54 1324.18M1617.27,1324.18A 77.366359 77.366359 0 0 0 1694.64 1246.82M1462.54,1819.32A 77.366359 77.366359 0 0 0 1385.17 1896.68M1694.64,1896.69A 77.366359 77.366359 0 0 0 1617.28 1819.32" />
</g>
<g style="font-family: \uad74\ub9bc\uccb4, uccb4, arial, helvetica, sans-serif" class="fRGB_3" >
<g font-size="109.179406" class="fRGB_3" >
<text id="cv_5" transform="scale(0.695838 1) translate(2139.58 439.29) " >15t</text>
</g>
<g font-size="93.582348" class="fRGB_3" >
<text id="cv_6" transform="scale(0.826053 1) translate(1047.05 466.7) " >12t</text>
<text id="cv_7" transform="scale(0.826053 1) translate(162.33 1966.62) " >12t</text>
<text id="cv_8" transform="scale(0.826053 1) translate(983.83 1966.62) " >12t</text>
</g>
</g>
<g style="font-family: arial, helvetica, sans-serif" class="fRGB_9" >
<g font-size="27.689303" class="fRGB_9" >
<a xlink:href="http://www.tailormade.com" ><text id="cv_9" class="hyperlink" font-size="30.765892"  transform="scale(1.111111 1.111111) translate(0 2215.14) rotate(330) " >Tailor Made Software, Ltd</text>
</a><a xlink:href="http://www.cadviewer.com" ><text id="cv_10" class="hyperlink" font-size="30.765892"  transform="scale(1.111111 1.111111) translate(0 1772.12) rotate(330) " >www.cadviewer.com</text>
</a><a xlink:href="http://www.cadviewer.com" ><text id="cv_11" class="hyperlink" font-size="30.765892"  transform="scale(1.111111 1.111111) translate(0 1329.09) rotate(330) " >For Demonstration Purposes Only</text>
</a><a xlink:href="http://www.tailormade.com" ><text id="cv_12" class="hyperlink" font-size="30.765892"  transform="scale(1.111111 1.111111) translate(0 886.06) rotate(330) " >www.tailormade.com</text>
</a><a xlink:href="http://www.tailormade.com" ><text id="cv_13" class="hyperlink" font-size="30.765892"  transform="scale(1.111111 1.111111) translate(0 443.03) rotate(330) " >Tailor Made Software, Ltd</text>
</a><a xlink:href="http://www.cadviewer.com" ><text id="cv_14" class="hyperlink" font-size="30.765892"  transform="scale(1.111111 1.111111) translate(391.14 2215.14) rotate(330) " >www.cadviewer.com</text>
</a><a xlink:href="http://www.cadviewer.com" ><text id="cv_15" class="hyperlink" font-size="30.765892"  transform="scale(1.111111 1.111111) translate(391.14 1772.12) rotate(330) " >For Demonstration Purposes Only</text>
</a><a xlink:href="http://www.tailormade.com" ><text id="cv_16" class="hyperlink" font-size="30.765892"  transform="scale(1.111111 1.111111) translate(391.14 1329.09) rotate(330) " >www.tailormade.com</text>
</a><a xlink:href="http://www.tailormade.com" ><text id="cv_17" class="hyperlink" font-size="30.765892"  transform="scale(1.111111 1.111111) translate(391.14 886.06) rotate(330) " >Tailor Made Software, Ltd</text>
</a><a xlink:href="http://www.cadviewer.com" ><text id="cv_18" class="hyperlink" font-size="30.765892"  transform="scale(1.111111 1.111111) translate(391.14 443.03) rotate(330) " >www.cadviewer.com</text>
</a><a xlink:href="http://www.cadviewer.com" ><text id="cv_19" class="hyperlink" font-size="30.765892"  transform="scale(1.111111 1.111111) translate(782.28 2215.14) rotate(330) " >For Demonstration Purposes Only</text>
</a><a xlink:href="http://www.tailormade.com" ><text id="cv_20" class="hyperlink" font-size="30.765892"  transform="scale(1.111111 1.111111) translate(782.28 1772.12) rotate(330) " >www.tailormade.com</text>
</a><a xlink:href="http://www.tailormade.com" ><text id="cv_21" class="hyperlink" font-size="30.765892"  transform="scale(1.111111 1.111111) translate(782.28 1329.09) rotate(330) " >Tailor Made Software, Ltd</text>
</a><a xlink:href="http://www.cadviewer.com" ><text id="cv_22" class="hyperlink" font-size="30.765892"  transform="scale(1.111111 1.111111) translate(782.28 886.06) rotate(330) " >www.cadviewer.com</text>
</a><a xlink:href="http://www.cadviewer.com" ><text id="cv_23" class="hyperlink" font-size="30.765892"  transform="scale(1.111111 1.111111) translate(782.28 443.03) rotate(330) " >For Demonstration Purposes Only</text>
</a><a xlink:href="http://www.tailormade.com" ><text id="cv_24" class="hyperlink" font-size="30.765892"  transform="scale(1.111111 1.111111) translate(1173.42 2215.14) rotate(330) " >www.tailormade.com</text>
</a><a xlink:href="http://www.tailormade.com" ><text id="cv_25" class="hyperlink" font-size="30.765892"  transform="scale(1.111111 1.111111) translate(1173.42 1772.12) rotate(330) " >Tailor Made Software, Ltd</text>
</a><a xlink:href="http://www.cadviewer.com" ><text id="cv_26" class="hyperlink" font-size="30.765892"  transform="scale(1.111111 1.111111) translate(1173.42 1329.09) rotate(330) " >www.cadviewer.com</text>
</a><a xlink:href="http://www.cadviewer.com" ><text id="cv_27" class="hyperlink" font-size="30.765892"  transform="scale(1.111111 1.111111) translate(1173.42 886.06) rotate(330) " >For Demonstration Purposes Only</text>
</a><a xlink:href="http://www.tailormade.com" ><text id="cv_28" class="hyperlink" font-size="30.765892"  transform="scale(1.111111 1.111111) translate(1173.42 443.03) rotate(330) " >www.tailormade.com</text>
</a><a xlink:href="http://www.tailormade.com" ><text id="cv_29" class="hyperlink" font-size="30.765892"  transform="scale(1.111111 1.111111) translate(1564.56 2215.14) rotate(330) " >Tailor Made Software, Ltd</text>
</a><a xlink:href="http://www.cadviewer.com" ><text id="cv_30" class="hyperlink" font-size="30.765892"  transform="scale(1.111111 1.111111) translate(1564.56 1772.12) rotate(330) " >www.cadviewer.com</text>
</a><a xlink:href="http://www.cadviewer.com" ><text id="cv_31" class="hyperlink" font-size="30.765892"  transform="scale(1.111111 1.111111) translate(1564.56 1329.09) rotate(330) " >For Demonstration Purposes Only</text>
</a><a xlink:href="http://www.tailormade.com" ><text id="cv_32" class="hyperlink" font-size="30.765892"  transform="scale(1.111111 1.111111) translate(1564.56 886.06) rotate(330) " >www.tailormade.com</text>
</a><a xlink:href="http://www.tailormade.com" ><text id="cv_33" class="hyperlink" font-size="30.765892"  transform="scale(1.111111 1.111111) translate(1564.56 443.03) rotate(330) " >Tailor Made Software, Ltd</text>
</a></g>
</g>
<g class="DA_IMAGEDIMGROUP_16" id="cv_Block_DA_IMAGEDIMGROUP_16_1">
<g id="cvclr_34" class="fRGB_0" >
<path id="cv_35" opacity="0.5" d="M1329.47,64.34l-35.87,-9.61v19.22l35.87,-9.61M1750.34,64.34l35.87,9.61v-19.22l-35.87,9.61M1385.17,64.34l35.87,9.61v-19.22l-35.87,9.61M1694.64,64.34l-35.87,-9.61v19.22l35.87,-9.61 Z "/>
</g>
<g id="cvclr_36" class="sRGB_4" >
<path id="cv_37" class="nZW sLW_0_26" d="M1385.17,762.81L1385.17,39.59M1329.47,221.24L1329.47,39.59M1329.47,64.34h55.7M1694.64,762.81L1694.64,39.59M1750.34,221.24L1750.34,39.59M1694.64,64.34h55.7M1182.98,64.34H1329.47" />
</g>
<g id="cvclr_38" class="sRGB_0" >
<path id="cv_39" class="nZW sLW_0_26" d="M1896.84,64.34H1750.34M1385.17,64.34H1694.64" />
<g style="font-family: \uad74\ub9bc\uccb4, uccb4, arial, helvetica, sans-serif" class="fRGB_0" >
<g font-size="93.582348" class="fRGB_0" >
<text id="cv_40" transform="scale(0.639091 1) translate(1899.45 49.49) " >18</text>
<text id="cv_41" transform="scale(0.661046 1) translate(2259.28 49.49) " >100</text>
<text id="cv_42" transform="scale(0.639091 1) translate(2826.63 49.49) " >18</text>
</g>
</g>
</g>
</g>
<g class="DA_IMAGEDIMGROUP_17" id="cv_Block_DA_IMAGEDIMGROUP_17_2">
<g id="cvclr_43" class="fRGB_0" >
<path id="cv_44" opacity="0.5" d="M1412.31,723.77l15.98,33.52l14.62,-12.48l-30.6,-21.04 Z "/>
</g>
<g id="cvclr_45" class="sRGB_4" >
<path id="cv_46" class="nZW sLW_0_26" d="M1610.58,956.02L1412.31,723.77" />
</g>
<g id="cvclr_47" class="sRGB_0" >
<g style="font-family: \uad74\ub9bc\uccb4, uccb4, arial, helvetica, sans-serif" class="fRGB_0" >
<g font-size="93.582348" class="fRGB_0" >
<text id="cv_48" font-size="171.172454"  transform="scale(0.674955 0.674955) translate(2237.42 1208.25) rotate(49) " >4-R25</text>
</g>
</g>
</g>
</g>
<g class="DA_IMAGEDIMGROUP_18" id="cv_Block_DA_IMAGEDIMGROUP_18_3">
<g id="cvclr_49" class="fRGB_0" >
<path id="cv_50" opacity="0.5" d="M1407.45,1842.37l18.8,32.03l13.5,-13.69l-32.29,-18.34 Z "/>
</g>
<g id="cvclr_51" class="sRGB_4" >
<path id="cv_52" class="nZW sLW_0_26" d="M1627.02,2058.83L1407.45,1842.37" />
</g>
<g id="cvclr_53" class="sRGB_0" >
<g style="font-family: \uad74\ub9bc\uccb4, uccb4, arial, helvetica, sans-serif" class="fRGB_0" >
<g font-size="93.582348" class="fRGB_0" >
<text id="cv_54" font-size="171.172454"  transform="scale(0.674955 0.674955) translate(2244.47 2855.69) rotate(44) " >2-R25</text>
</g>
</g>
</g>
</g>
<g class="DA_IMAGEDIMGROUP_19" id="cv_Block_DA_IMAGEDIMGROUP_19_4">
<g id="cvclr_55" class="fRGB_0" >
<path id="cv_56" opacity="0.5" d="M1329.47,2271.18l-35.87,-9.61v19.22l35.87,-9.61M1750.34,2271.18l35.87,9.61v-19.22l-35.87,9.61M1385.17,2271.18l35.87,9.61v-19.22l-35.87,9.61M1694.64,2271.18l-35.87,-9.61v19.22l35.87,-9.61 Z "/>
</g>
<g id="cvclr_57" class="sRGB_4" >
<path id="cv_58" class="nZW sLW_0_26" d="M1329.47,2086.7L1329.47,2295.93M1385.17,2086.7L1385.17,2295.93M1329.47,2271.18h55.7M1694.64,2086.7L1694.64,2295.93M1750.34,2086.7L1750.34,2295.93M1694.64,2271.18h55.7M1182.98,2271.18H1329.47" />
</g>
<g id="cvclr_59" class="sRGB_0" >
<path id="cv_60" class="nZW sLW_0_26" d="M1896.84,2271.18H1750.34M1385.17,2271.18H1694.64" />
<g style="font-family: \uad74\ub9bc\uccb4, uccb4, arial, helvetica, sans-serif" class="fRGB_0" >
<g font-size="93.582348" class="fRGB_0" >
<text id="cv_61" transform="scale(0.639091 1) translate(1899.45 2256.32) " >18</text>
<text id="cv_62" transform="scale(0.661046 1) translate(2259.28 2256.32) " >100</text>
<text id="cv_63" transform="scale(0.639091 1) translate(2826.63 2256.32) " >18</text>
</g>
</g>
</g>
</g>
<g class="DA_IMAGEDIMGROUP_20" id="cv_Block_DA_IMAGEDIMGROUP_20_5">
<g id="cvclr_64" class="fRGB_0" >
<path id="cv_65" opacity="0.5" d="M1329.47,2436.51l35.87,9.61v-19.22l-35.87,9.61M1750.34,2436.51l-35.87,-9.61v19.22l35.87,-9.61 Z "/>
</g>
<g id="cvclr_66" class="sRGB_4" >
<path id="cv_67" class="nZW sLW_0_26" d="M1329.47,2290.98L1329.47,2461.27M1750.34,2290.98L1750.34,2461.27M1329.47,2436.51H1750.34" />
</g>
<g id="cvclr_68" class="sRGB_0" >
<g style="font-family: \uad74\ub9bc\uccb4, uccb4, arial, helvetica, sans-serif" class="fRGB_0" >
<g font-size="93.582348" class="fRGB_0" >
<text id="cv_69" transform="scale(0.660053 1) translate(2262.68 2421.66) " >136</text>
</g>
</g>
</g>
</g>
<g class="DA_IMAGEDIMGROUP_21" id="cv_Block_DA_IMAGEDIMGROUP_21_6">
<g id="cvclr_70" class="fRGB_0" >
<path id="cv_71" opacity="0.5" d="M1958.59,2066.89l9.61,-35.87h-19.22l9.61,35.87M1958.59,1819.32l-9.61,35.87h19.22l-9.61,-35.87M1958.59,1819.32l9.61,-35.87h-19.22l9.61,35.87M1958.59,1324.18l-9.61,35.87h19.22l-9.61,-35.87M1958.59,1324.18l9.61,-35.87h-19.22l9.61,35.87M1958.59,705.24l-9.61,35.87h19.22l-9.61,-35.87M1958.59,705.24l9.61,-35.87h-19.22l9.61,35.87M1958.59,241.05l-9.61,35.87h19.22l-9.61,-35.87 Z "/>
</g>
<g id="cvclr_72" class="sRGB_4" >
<path id="cv_73" class="nZW sLW_0_26" d="M1637.08,1819.32H1983.35M1770.15,2066.89H1983.35M1637.08,1324.18H1983.35M1637.08,705.24H1983.35M1770.15,241.05H1983.35M1958.59,2066.89L1958.59,1819.32" />
</g>
<g id="cvclr_74" class="sRGB_0" >
<path id="cv_75" class="nZW sLW_0_26" d="M1958.59,1819.32L1958.59,1324.18L1958.59,705.24L1958.59,241.05" />
<g style="font-family: \uad74\ub9bc\uccb4, uccb4, arial, helvetica, sans-serif" class="fRGB_0" >
<g font-size="93.582348" class="fRGB_0" >
<text id="cv_76" font-size="179.819618"  transform="scale(0.642498 0.642498) translate(3029.13 3070.54) rotate(270) " >80</text>
<text id="cv_77" font-size="174.774261"  transform="scale(0.661046 0.661046) translate(2944.14 2447.89) rotate(270) " >160</text>
<text id="cv_78" font-size="174.774261"  transform="scale(0.661046 0.661046) translate(2944.14 1605.23) rotate(270) " >200</text>
<text id="cv_79" font-size="174.774261"  transform="scale(0.661046 0.661046) translate(2944.14 785.98) rotate(270) " >150</text>
</g>
</g>
</g>
</g>
<g class="DA_IMAGEDIMGROUP_22" id="cv_Block_DA_IMAGEDIMGROUP_22_7">
<g id="cvclr_80" class="fRGB_0" >
<path id="cv_81" opacity="0.5" d="M2135.89,2066.89l9.61,-35.87h-19.22l9.61,35.87M2135.89,241.05l-9.61,35.87h19.22l-9.61,-35.87 Z "/>
</g>
<g id="cvclr_82" class="sRGB_4" >
<path id="cv_83" class="nZW sLW_0_26" d="M1978.4,2066.89H2160.64M1978.4,241.05H2160.64M2135.89,2066.89L2135.89,241.05" />
</g>
<g id="cvclr_84" class="sRGB_0" >
<g style="font-family: \uad74\ub9bc\uccb4, uccb4, arial, helvetica, sans-serif" class="fRGB_0" >
<g font-size="93.582348" class="fRGB_0" >
<text id="cv_85" font-size="174.774261"  transform="scale(0.661046 0.661046) translate(3212.35 1815.89) rotate(270) " >590</text>
</g>
</g>
</g>
</g>
<g class="DA_IMAGEDIMGROUP_32" id="cv_Block_DA_IMAGEDIMGROUP_32_8">
<g id="cvclr_86" class="fRGB_0" >
<path id="cv_87" opacity="0.5" d="M522.55,900.93l35.87,9.61v-19.22l-35.87,9.61M1017.7,900.93l-35.87,-9.61v19.22l35.87,-9.61M1079.59,900.93l35.87,9.61v-19.22l-35.87,9.61 Z "/>
</g>
<g id="cvclr_88" class="sRGB_4" >
<path id="cv_89" class="nZW sLW_0_26" d="M1017.7,752.38L1017.7,931.87M522.55,350.08L522.55,931.87M1079.59,752.38L1079.59,931.87M1017.7,900.93h61.89M522.55,900.93H1017.7" />
</g>
<g id="cvclr_90" class="sRGB_0" >
<path id="cv_91" class="nZW sLW_0_26" d="M1238.01,900.93H1079.59" />
<g style="font-family: \uad74\ub9bc\uccb4, uccb4, arial, helvetica, sans-serif" class="fRGB_0" >
<g font-size="93.582348" class="fRGB_0" >
<text id="cv_92" transform="scale(0.766813 1) translate(934.1 882.36) " >160</text>
<text id="cv_93" transform="scale(0.722810 1) translate(1577.48 882.36) " >20</text>
</g>
</g>
</g>
</g>
<g class="DA_IMAGEDIMGROUP_33" id="cv_Block_DA_IMAGEDIMGROUP_33_9">
<g id="cvclr_94" class="fRGB_0" >
<path id="cv_95" opacity="0.5" d="M522.55,1074.23l35.87,9.61v-19.22l-35.87,9.61M1079.59,1074.23l-35.87,-9.61v19.22l35.87,-9.61 Z "/>
</g>
<g id="cvclr_96" class="sRGB_4" >
<path id="cv_97" class="nZW sLW_0_26" d="M1079.59,752.38L1079.59,1105.18M522.55,350.08L522.55,1105.18M522.55,1074.23H1079.59" />
</g>
<g id="cvclr_98" class="sRGB_0" >
<g style="font-family: \uad74\ub9bc\uccb4, uccb4, arial, helvetica, sans-serif" class="fRGB_0" >
<g font-size="93.582348" class="fRGB_0" >
<text id="cv_99" transform="scale(0.766813 1) translate(974.45 1055.66) " >180</text>
</g>
</g>
</g>
</g>
<g class="DA_IMAGEDIMGROUP_34" id="cv_Block_DA_IMAGEDIMGROUP_34_10">
<g id="cvclr_100" class="fRGB_0" >
<path id="cv_101" opacity="0.5" d="M393.1,727.63l9.61,-35.87h-19.22l9.61,35.87M393.1,325.32l-9.61,35.87h19.22l-9.61,-35.87M393.1,263.43l9.61,-35.87h-19.22l9.61,35.87 Z "/>
</g>
<g id="cvclr_102" class="sRGB_4" >
<path id="cv_103" class="nZW sLW_0_26" d="M393.1,727.63L393.1,325.32" />
</g>
<g id="cvclr_104" class="sRGB_0" >
<path id="cv_105" class="nZW sLW_0_26" d="M393.1,325.32l0,-61.89M992.94,727.63H368.34M497.79,325.32H368.34M497.79,263.43H368.34M393.1,105.01L393.1,263.43" />
<g style="font-family: \uad74\ub9bc\uccb4, uccb4, arial, helvetica, sans-serif" class="fRGB_0" >
<g font-size="93.582348" class="fRGB_0" >
<text id="cv_106" font-size="150.667466"  transform="scale(0.766813 0.766813) translate(488.43 756.8) rotate(270) " >130</text>
<text id="cv_107" font-size="159.839661"  transform="scale(0.722810 0.722810) translate(518.16 280.57) rotate(270) " >20</text>
</g>
</g>
</g>
</g>
<g class="DA_IMAGEDIMGROUP_35" id="cv_Block_DA_IMAGEDIMGROUP_35_11">
<g id="cvclr_108" class="fRGB_0" >
<path id="cv_109" opacity="0.5" d="M243.02,727.63l9.61,-35.87h-19.22l9.61,35.87M243.02,263.43l-9.61,35.87h19.22l-9.61,-35.87 Z "/>
</g>
<g id="cvclr_110" class="sRGB_4" >
<path id="cv_111" class="nZW sLW_0_26" d="M243.02,727.63L243.02,263.43" />
</g>
<g id="cvclr_112" class="sRGB_0" >
<path id="cv_113" class="nZW sLW_0_26" d="M992.94,727.63H218.26M497.79,263.43H218.26" />
</g>
<g id="cvclr_114" class="sRGB_3" >
<g style="font-family: \uad74\ub9bc\uccb4, uccb4, arial, helvetica, sans-serif" class="fRGB_3" >
<g font-size="93.582348" class="fRGB_3" >
<text id="cv_115" font-size="150.667466"  transform="scale(0.766813 0.766813) translate(292.71 716.44) rotate(270) " >150</text>
</g>
</g>
</g>
</g>
<g class="DA_IMAGEDIMGROUP_111" id="cv_Block_DA_IMAGEDIMGROUP_111_12">
<g id="cvclr_116" class="fRGB_0" >
<path id="cv_117" opacity="0.5" d="M451.82,2021.33l9.61,-35.87h-19.22l9.61,35.87M451.82,1600.46l-9.61,35.87h19.22l-9.61,-35.87 Z "/>
</g>
<g id="cvclr_118" class="sRGB_4" >
<path id="cv_119" class="nZW sLW_0_26" d="M303.28,2021.33H482.77M303.28,1600.46H482.77M451.82,2021.33L451.82,1600.46" />
</g>
<g id="cvclr_120" class="sRGB_0" >
<g style="font-family: \uad74\ub9bc\uccb4, uccb4, arial, helvetica, sans-serif" class="fRGB_0" >
<g font-size="93.582348" class="fRGB_0" >
<text id="cv_121" font-size="150.894147"  transform="scale(0.765661 0.765661) translate(565.85 2435.46) rotate(270) " >136</text>
</g>
</g>
</g>
</g>
<g class="DA_IMAGEDIMGROUP_112" id="cv_Block_DA_IMAGEDIMGROUP_112_13">
<g id="cvclr_122" class="fRGB_0" >
<path id="cv_123" opacity="0.5" d="M0,2194.63l35.87,9.61v-19.22l-35.87,9.61M278.52,2194.63l-35.87,-9.61v19.22l35.87,-9.61 Z "/>
</g>
<g id="cvclr_124" class="sRGB_4" >
<path id="cv_125" class="nZW sLW_0_26" d="M0,2046.09L0,2225.58M278.52,2046.09L278.52,2225.58M0,2194.63H278.52" />
</g>
<g id="cvclr_126" class="sRGB_0" >
<g style="font-family: \uad74\ub9bc\uccb4, uccb4, arial, helvetica, sans-serif" class="fRGB_0" >
<g font-size="93.582348" class="fRGB_0" >
<text id="cv_127" transform="scale(0.722810 1) translate(146.42 2182.25) " >90</text>
</g>
</g>
</g>
</g>
<g class="DC_GROUP_128" id="cv_Block_DC_GROUP_128_14">
<g id="cvclr_128" class="sRGB_4" >
<path id="cv_129" class=" nZW sLW_0_26" d="M225.23,1437.01l-0.01,-0.86l-0.02,-0.86l-0.03,-0.86l-0.04,-0.85l-0.05,-0.85l-0.06,-0.85l-0.07,-0.85l-0.08,-0.85l-0.09,-0.85l-0.1,-0.85l-0.11,-0.85l-0.12,-0.85l-0.13,-0.85l-0.14,-0.84l-0.16,-0.84l-0.17,-0.84l-0.18,-0.84l-0.19,-0.83l-0.2,-0.83l-0.21,-0.83l-0.22,-0.83l-0.23,-0.82l-0.24,-0.82l-0.25,-0.82l-0.26,-0.82l-0.27,-0.81l-0.28,-0.81l-0.29,-0.8l-0.3,-0.8l-0.31,-0.8l-0.48,-1.19l-0.51,-1.18l-0.53,-1.17l-0.55,-1.16l-0.57,-1.15l-0.59,-1.14l-0.61,-1.13l-0.64,-1.11l-0.66,-1.1l-0.68,-1.09l-0.7,-1.08l-0.72,-1.06l-0.74,-1.05l-0.76,-1.04l-0.78,-1.02l-0.8,-1.01l-0.81,-0.99l-0.83,-0.98l-0.85,-0.96l-0.87,-0.94l-0.89,-0.93l-0.9,-0.91l-0.92,-0.89l-0.94,-0.88l-0.95,-0.86l-0.97,-0.84l-0.99,-0.82l-1,-0.8l-1.02,-0.78l-1.03,-0.76l-1.05,-0.74l-1.06,-0.72l-1.07,-0.7l-1.09,-0.68l-1.1,-0.66l-1.11,-0.64l-1.12,-0.62l-1.13,-0.6l-1.15,-0.58l-1.16,-0.56l-1.17,-0.54l-1.18,-0.51l-1.19,-0.49l-0.8,-0.31l-0.8,-0.3l-0.8,-0.29l-0.81,-0.28l-0.81,-0.27l-0.81,-0.26l-0.82,-0.25l-0.82,-0.24l-0.82,-0.23l-0.83,-0.22l-0.83,-0.21l-0.83,-0.2l-0.83,-0.19l-0.84,-0.18l-0.84,-0.17l-0.84,-0.16l-0.84,-0.15l-0.84,-0.14l-0.85,-0.13l-0.85,-0.12l-0.85,-0.11l-0.85,-0.1l-0.85,-0.09l-0.85,-0.08l-0.85,-0.06l-0.85,-0.05l-0.85,-0.04l-0.85,-0.03l-0.86,-0.02l-0.86,-0.01h-0.86l-0.86,0.01l-0.86,0.02l-0.85,0.03l-0.85,0.04l-0.85,0.05l-0.85,0.06l-0.85,0.08l-0.85,0.09l-0.85,0.1l-0.85,0.11l-0.85,0.12l-0.85,0.13l-0.84,0.14l-0.84,0.15l-0.84,0.16l-0.84,0.17l-0.84,0.18l-0.83,0.19l-0.83,0.2l-0.83,0.21l-0.83,0.22l-0.82,0.23l-0.82,0.24l-0.82,0.25l-0.81,0.26l-0.81,0.27l-0.81,0.28l-0.8,0.29l-0.8,0.3l-1.19,0.48l-1.18,0.5l-1.17,0.52l-1.16,0.54l-1.15,0.56l-1.14,0.59l-1.13,0.61l-1.12,0.63l-1.11,0.65l-1.09,0.67l-1.08,0.69l-1.07,0.71l-1.05,0.73l-1.04,0.75l-1.03,0.77l-1.01,0.79l-1,0.81l-0.98,0.83l-0.97,0.85l-0.95,0.86l-0.93,0.88l-0.92,0.9l-0.9,0.92l-0.88,0.93l-0.86,0.95l-0.85,0.97l-0.83,0.98l-0.81,1l-0.79,1.01l-0.77,1.03l-0.75,1.04l-0.73,1.05l-0.71,1.07l-0.69,1.08l-0.67,1.09l-0.65,1.11l-0.63,1.12l-0.61,1.13l-0.59,1.14l-0.56,1.15l-0.54,1.16l-0.52,1.17l-0.5,1.18l-0.48,1.19l-0.3,0.8l-0.29,0.8l-0.28,0.81l-0.27,0.81l-0.26,0.81l-0.25,0.82l-0.24,0.82l-0.23,0.82l-0.22,0.83l-0.21,0.83l-0.2,0.83l-0.19,0.83l-0.18,0.84l-0.17,0.84l-0.16,0.84l-0.15,0.84l-0.14,0.84l-0.13,0.85l-0.12,0.85l-0.11,0.85l-0.1,0.85l-0.09,0.85l-0.08,0.85l-0.06,0.85l-0.05,0.85l-0.04,0.85l-0.03,0.85l-0.02,0.86l-0.01,0.86v0.86l0.01,0.86l0.02,0.86l0.03,0.85l0.04,0.85l0.05,0.85l0.06,0.85l0.08,0.85l0.09,0.85l0.1,0.85l0.11,0.85l0.12,0.85l0.13,0.85l0.14,0.84l0.15,0.84l0.16,0.84l0.17,0.84l0.18,0.84l0.19,0.83l0.2,0.83l0.21,0.83l0.22,0.83l0.23,0.82l0.24,0.82l0.25,0.82l0.26,0.81l0.27,0.81l0.28,0.81l0.29,0.8l0.3,0.8l0.48,1.19l0.5,1.18l0.52,1.17l0.54,1.16l0.56,1.15l0.59,1.14l0.61,1.13l0.63,1.12l0.65,1.11l0.67,1.09l0.69,1.08l0.71,1.07l0.73,1.05l0.75,1.04l0.77,1.03l0.79,1.01l0.81,1l0.83,0.98l0.85,0.97l0.86,0.95l0.88,0.93l0.9,0.92l0.92,0.9l0.93,0.88l0.95,0.86l0.97,0.85l0.98,0.83l1,0.81l1.01,0.79l1.03,0.77l1.04,0.75l1.05,0.73l1.07,0.71l1.08,0.69l1.09,0.67l1.11,0.65l1.12,0.63l1.13,0.61l1.14,0.59l1.15,0.56l1.16,0.54l1.17,0.52l1.18,0.5l1.19,0.48l0.8,0.3l0.8,0.29l0.81,0.28l0.81,0.27l0.81,0.26l0.82,0.25l0.82,0.24l0.82,0.23l0.83,0.22l0.83,0.21l0.83,0.2l0.83,0.19l0.84,0.18l0.84,0.17l0.84,0.16l0.84,0.15l0.84,0.14l0.85,0.13l0.85,0.12l0.85,0.11l0.85,0.1l0.85,0.09l0.85,0.08l0.85,0.06l0.85,0.05l0.85,0.04l0.85,0.03l0.86,0.02l0.86,0.01h0.86l0.86,-0.01l0.86,-0.02l0.85,-0.03l0.85,-0.04l0.85,-0.05l0.85,-0.06l0.85,-0.08l0.85,-0.09l0.85,-0.1l0.85,-0.11l0.85,-0.12l0.85,-0.13l0.84,-0.14l0.84,-0.15l0.84,-0.16l0.84,-0.17l0.84,-0.18l0.83,-0.19l0.83,-0.2l0.83,-0.21l0.83,-0.22l0.82,-0.23l0.82,-0.24l0.82,-0.25l0.81,-0.26l0.81,-0.27l0.81,-0.28l0.8,-0.29l0.8,-0.3l1.19,-0.48l1.18,-0.5l1.17,-0.52l1.16,-0.54l1.15,-0.56l1.14,-0.59l1.13,-0.61l1.12,-0.63l1.11,-0.65l1.09,-0.67l1.08,-0.69l1.07,-0.71l1.05,-0.73l1.04,-0.75l1.03,-0.77l1.01,-0.79l1,-0.81l0.98,-0.83l0.97,-0.85l0.95,-0.86l0.93,-0.88l0.92,-0.9l0.9,-0.92l0.88,-0.93l0.86,-0.95l0.85,-0.97l0.83,-0.98l0.81,-1l0.79,-1.01l0.77,-1.03l0.75,-1.04l0.73,-1.05l0.71,-1.07l0.69,-1.08l0.67,-1.09l0.65,-1.11l0.63,-1.12l0.61,-1.13l0.59,-1.14l0.56,-1.15l0.54,-1.16l0.52,-1.17l0.5,-1.18l0.48,-1.19l0.3,-0.8l0.29,-0.8l0.28,-0.81l0.27,-0.81l0.26,-0.81l0.25,-0.82l0.24,-0.82l0.23,-0.82l0.22,-0.83l0.21,-0.83l0.2,-0.83l0.19,-0.83l0.18,-0.84l0.17,-0.84l0.16,-0.84l0.15,-0.84l0.14,-0.84l0.13,-0.85l0.12,-0.85l0.11,-0.85l0.1,-0.85l0.09,-0.85l0.08,-0.85l0.06,-0.85l0.05,-0.85l0.04,-0.85l0.03,-0.85l0.02,-0.86l0.01,-0.86l0,-0.43" />
</g>
<g id="cvclr_130" class="sRGB_3" >
<g style="font-family: \uad74\ub9bc\uccb4, uccb4, arial, helvetica, sans-serif" class="fRGB_3" >
<g font-size="109.179406" class="fRGB_3" >
<text id="cv_131" transform="scale(0.627679 1) translate(196.13 1480.34) " >-8</text>
</g>
</g>
</g>
</g>
<g class="DA_IMAGEDIMGROUP_136" id="cv_Block_DA_IMAGEDIMGROUP_136_15">
<g id="cvclr_132" class="fRGB_0" >
<path id="cv_133" opacity="0.5" d="M1130.42,2021.33l9.61,-35.87h-19.22l9.61,35.87M1130.42,1600.46l-9.61,35.87h19.22l-9.61,-35.87 Z "/>
</g>
<g id="cvclr_134" class="sRGB_4" >
<path id="cv_135" class="nZW sLW_0_26" d="M981.88,2021.33H1161.37M981.88,1600.46H1161.37M1130.42,2021.33L1130.42,1600.46" />
</g>
<g id="cvclr_136" class="sRGB_0" >
<g style="font-family: \uad74\ub9bc\uccb4, uccb4, arial, helvetica, sans-serif" class="fRGB_0" >
<g font-size="93.582348" class="fRGB_0" >
<text id="cv_137" font-size="150.894147"  transform="scale(0.765661 0.765661) translate(1452.15 2435.46) rotate(270) " >136</text>
</g>
</g>
</g>
</g>
<g class="DA_IMAGEDIMGROUP_137" id="cv_Block_DA_IMAGEDIMGROUP_137_16">
<g id="cvclr_138" class="fRGB_0" >
<path id="cv_139" opacity="0.5" d="M760.61,2194.63l35.87,9.61v-19.22l-35.87,9.61M957.12,2194.63l-35.87,-9.61v19.22l35.87,-9.61 Z "/>
</g>
<g id="cvclr_140" class="sRGB_4" >
<path id="cv_141" class="nZW sLW_0_26" d="M760.61,2046.09L760.61,2225.58M957.12,2046.09L957.12,2225.58M760.61,2194.63H957.12" />
</g>
<g id="cvclr_142" class="sRGB_0" >
<g style="font-family: \uad74\ub9bc\uccb4, uccb4, arial, helvetica, sans-serif" class="fRGB_0" >
<g font-size="93.582348" class="fRGB_0" >
<text id="cv_143" transform="scale(0.787528 1) translate(996.27 2182.25) " >63.5</text>
</g>
</g>
</g>
</g>
<g class="DC_GROUP_156" id="cv_Block_DC_GROUP_156_17">
<g id="cvclr_144" class="sRGB_4" >
<path id="cv_145" class=" nZW sLW_0_26" d="M903.83,1437.01l-0.01,-0.86l-0.02,-0.86l-0.03,-0.86l-0.04,-0.85l-0.05,-0.85l-0.06,-0.85l-0.07,-0.85l-0.08,-0.85l-0.09,-0.85l-0.1,-0.85l-0.11,-0.85l-0.12,-0.85l-0.13,-0.85l-0.14,-0.84l-0.16,-0.84l-0.17,-0.84l-0.18,-0.84l-0.19,-0.83l-0.2,-0.83l-0.21,-0.83l-0.22,-0.83l-0.23,-0.82l-0.24,-0.82l-0.25,-0.82l-0.26,-0.82l-0.27,-0.81l-0.28,-0.81l-0.29,-0.8l-0.3,-0.8l-0.31,-0.8l-0.48,-1.19l-0.51,-1.18l-0.53,-1.17l-0.55,-1.16l-0.57,-1.15l-0.59,-1.14l-0.61,-1.13l-0.64,-1.11l-0.66,-1.1l-0.68,-1.09l-0.7,-1.08l-0.72,-1.06l-0.74,-1.05l-0.76,-1.04l-0.78,-1.02l-0.8,-1.01l-0.81,-0.99l-0.83,-0.98l-0.85,-0.96l-0.87,-0.94l-0.89,-0.93l-0.9,-0.91l-0.92,-0.89l-0.94,-0.88l-0.95,-0.86l-0.97,-0.84l-0.99,-0.82l-1,-0.8l-1.02,-0.78l-1.03,-0.76l-1.05,-0.74l-1.06,-0.72l-1.07,-0.7l-1.09,-0.68l-1.1,-0.66l-1.11,-0.64l-1.12,-0.62l-1.13,-0.6l-1.15,-0.58l-1.16,-0.56l-1.17,-0.54l-1.18,-0.51l-1.19,-0.49l-0.8,-0.31l-0.8,-0.3l-0.8,-0.29l-0.81,-0.28l-0.81,-0.27l-0.81,-0.26l-0.82,-0.25l-0.82,-0.24l-0.82,-0.23l-0.83,-0.22l-0.83,-0.21l-0.83,-0.2l-0.83,-0.19l-0.84,-0.18l-0.84,-0.17l-0.84,-0.16l-0.84,-0.15l-0.84,-0.14l-0.85,-0.13l-0.85,-0.12l-0.85,-0.11l-0.85,-0.1l-0.85,-0.09l-0.85,-0.08l-0.85,-0.06l-0.85,-0.05l-0.85,-0.04l-0.85,-0.03l-0.86,-0.02l-0.86,-0.01h-0.86l-0.86,0.01l-0.86,0.02l-0.85,0.03l-0.85,0.04l-0.85,0.05l-0.85,0.06l-0.85,0.08l-0.85,0.09l-0.85,0.1l-0.85,0.11l-0.85,0.12l-0.85,0.13l-0.84,0.14l-0.84,0.15l-0.84,0.16l-0.84,0.17l-0.84,0.18l-0.83,0.19l-0.83,0.2l-0.83,0.21l-0.83,0.22l-0.82,0.23l-0.82,0.24l-0.82,0.25l-0.81,0.26l-0.81,0.27l-0.81,0.28l-0.8,0.29l-0.8,0.3l-1.19,0.48l-1.18,0.5l-1.17,0.52l-1.16,0.54l-1.15,0.56l-1.14,0.59l-1.13,0.61l-1.12,0.63l-1.11,0.65l-1.09,0.67l-1.08,0.69l-1.07,0.71l-1.05,0.73l-1.04,0.75l-1.03,0.77l-1.01,0.79l-1,0.81l-0.98,0.83l-0.97,0.85l-0.95,0.86l-0.93,0.88l-0.92,0.9l-0.9,0.92l-0.88,0.93l-0.86,0.95l-0.85,0.97l-0.83,0.98l-0.81,1l-0.79,1.01l-0.77,1.03l-0.75,1.04l-0.73,1.05l-0.71,1.07l-0.69,1.08l-0.67,1.09l-0.65,1.11l-0.63,1.12l-0.61,1.13l-0.59,1.14l-0.56,1.15l-0.54,1.16l-0.52,1.17l-0.5,1.18l-0.48,1.19l-0.3,0.8l-0.29,0.8l-0.28,0.81l-0.27,0.81l-0.26,0.81l-0.25,0.82l-0.24,0.82l-0.23,0.82l-0.22,0.83l-0.21,0.83l-0.2,0.83l-0.19,0.83l-0.18,0.84l-0.17,0.84l-0.16,0.84l-0.15,0.84l-0.14,0.84l-0.13,0.85l-0.12,0.85l-0.11,0.85l-0.1,0.85l-0.09,0.85l-0.08,0.85l-0.06,0.85l-0.05,0.85l-0.04,0.85l-0.03,0.85l-0.02,0.86l-0.01,0.86v0.86l0.01,0.86l0.02,0.86l0.03,0.85l0.04,0.85l0.05,0.85l0.06,0.85l0.08,0.85l0.09,0.85l0.1,0.85l0.11,0.85l0.12,0.85l0.13,0.85l0.14,0.84l0.15,0.84l0.16,0.84l0.17,0.84l0.18,0.84l0.19,0.83l0.2,0.83l0.21,0.83l0.22,0.83l0.23,0.82l0.24,0.82l0.25,0.82l0.26,0.81l0.27,0.81l0.28,0.81l0.29,0.8l0.3,0.8l0.48,1.19l0.5,1.18l0.52,1.17l0.54,1.16l0.56,1.15l0.59,1.14l0.61,1.13l0.63,1.12l0.65,1.11l0.67,1.09l0.69,1.08l0.71,1.07l0.73,1.05l0.75,1.04l0.77,1.03l0.79,1.01l0.81,1l0.83,0.98l0.85,0.97l0.86,0.95l0.88,0.93l0.9,0.92l0.92,0.9l0.93,0.88l0.95,0.86l0.97,0.85l0.98,0.83l1,0.81l1.01,0.79l1.03,0.77l1.04,0.75l1.05,0.73l1.07,0.71l1.08,0.69l1.09,0.67l1.11,0.65l1.12,0.63l1.13,0.61l1.14,0.59l1.15,0.56l1.16,0.54l1.17,0.52l1.18,0.5l1.19,0.48l0.8,0.3l0.8,0.29l0.81,0.28l0.81,0.27l0.81,0.26l0.82,0.25l0.82,0.24l0.82,0.23l0.83,0.22l0.83,0.21l0.83,0.2l0.83,0.19l0.84,0.18l0.84,0.17l0.84,0.16l0.84,0.15l0.84,0.14l0.85,0.13l0.85,0.12l0.85,0.11l0.85,0.1l0.85,0.09l0.85,0.08l0.85,0.06l0.85,0.05l0.85,0.04l0.85,0.03l0.86,0.02l0.86,0.01h0.86l0.86,-0.01l0.86,-0.02l0.85,-0.03l0.85,-0.04l0.85,-0.05l0.85,-0.06l0.85,-0.08l0.85,-0.09l0.85,-0.1l0.85,-0.11l0.85,-0.12l0.85,-0.13l0.84,-0.14l0.84,-0.15l0.84,-0.16l0.84,-0.17l0.84,-0.18l0.83,-0.19l0.83,-0.2l0.83,-0.21l0.83,-0.22l0.82,-0.23l0.82,-0.24l0.82,-0.25l0.81,-0.26l0.81,-0.27l0.81,-0.28l0.8,-0.29l0.8,-0.3l1.19,-0.48l1.18,-0.5l1.17,-0.52l1.16,-0.54l1.15,-0.56l1.14,-0.59l1.13,-0.61l1.12,-0.63l1.11,-0.65l1.09,-0.67l1.08,-0.69l1.07,-0.71l1.05,-0.73l1.04,-0.75l1.03,-0.77l1.01,-0.79l1,-0.81l0.98,-0.83l0.97,-0.85l0.95,-0.86l0.93,-0.88l0.92,-0.9l0.9,-0.92l0.88,-0.93l0.86,-0.95l0.85,-0.97l0.83,-0.98l0.81,-1l0.79,-1.01l0.77,-1.03l0.75,-1.04l0.73,-1.05l0.71,-1.07l0.69,-1.08l0.67,-1.09l0.65,-1.11l0.63,-1.12l0.61,-1.13l0.59,-1.14l0.56,-1.15l0.54,-1.16l0.52,-1.17l0.5,-1.18l0.48,-1.19l0.3,-0.8l0.29,-0.8l0.28,-0.81l0.27,-0.81l0.26,-0.81l0.25,-0.82l0.24,-0.82l0.23,-0.82l0.22,-0.83l0.21,-0.83l0.2,-0.83l0.19,-0.83l0.18,-0.84l0.17,-0.84l0.16,-0.84l0.15,-0.84l0.14,-0.84l0.13,-0.85l0.12,-0.85l0.11,-0.85l0.1,-0.85l0.09,-0.85l0.08,-0.85l0.06,-0.85l0.05,-0.85l0.04,-0.85l0.03,-0.85l0.02,-0.86l0.01,-0.86l0,-0.43" />
</g>
<g id="cvclr_146" class="sRGB_3" >
<g style="font-family: \uad74\ub9bc\uccb4, uccb4, arial, helvetica, sans-serif" class="fRGB_3" >
<g font-size="109.179406" class="fRGB_3" >
<text id="cv_147" transform="scale(0.645936 1) translate(1211.93 1480.34) " >-10</text>
</g>
</g>
</g>
</g>
</g>
</g></svg>